<svg width="18" height="18" viewBox="0 0 18 18" fill="none" xmlns="http://www.w3.org/2000/svg">
<path d="M6.88066 1.90191C6.95992 1.4246 7.37382 1.0741 7.85818 1.0741H10.1417C10.6261 1.0741 11.04 1.4246 11.1192 1.90191L11.3068 3.03003C11.3623 3.35939 11.5825 3.63416 11.8748 3.7962C11.94 3.83142 12.0043 3.86929 12.0686 3.90804C12.3539 4.08065 12.7027 4.13437 13.0153 4.01724L14.087 3.61566C14.3067 3.53306 14.5485 3.5311 14.7694 3.61013C14.9904 3.68915 15.1761 3.84403 15.2935 4.04718L16.4349 6.02601C16.552 6.22918 16.5933 6.46734 16.5514 6.6981C16.5095 6.92886 16.3871 7.13726 16.2059 7.28623L15.3226 8.01453C15.0646 8.22589 14.9369 8.55437 14.943 8.88814C14.9445 8.96299 14.9445 9.03786 14.943 9.11271C14.9369 9.44559 15.0646 9.7732 15.3217 9.98455L16.2068 10.7137C16.5802 11.022 16.6771 11.5539 16.4358 11.9731L15.2927 13.9519C15.1754 14.155 14.9899 14.3099 14.7691 14.3891C14.5484 14.4683 14.3067 14.4666 14.087 14.3843L13.0153 13.9827C12.7027 13.8656 12.3548 13.9193 12.0677 14.0919C12.0039 14.1307 11.9393 14.1683 11.874 14.2046C11.5825 14.3658 11.3623 14.6406 11.3068 14.9699L11.1192 16.0972C11.04 16.5754 10.6261 16.9259 10.1417 16.9259H7.8573C7.37294 16.9259 6.95904 16.5754 6.87978 16.0981L6.6922 14.9699C6.6376 14.6406 6.41743 14.3658 6.12506 14.2038C6.05976 14.1677 5.99516 14.1305 5.93131 14.0919C5.6451 13.9193 5.29724 13.8656 4.98373 13.9827L3.91197 14.3843C3.69245 14.4667 3.45083 14.4685 3.23008 14.3895C3.00933 14.3105 2.82376 14.1557 2.70636 13.9528L1.56415 11.9739C1.44697 11.7708 1.40567 11.5326 1.4476 11.3019C1.48953 11.0711 1.61196 10.8627 1.79312 10.7137L2.6773 9.98543C2.93445 9.77408 3.06214 9.44559 3.05598 9.11182C3.0546 9.03698 3.0546 8.96211 3.05598 8.88726C3.06214 8.55437 2.93445 8.22677 2.6773 8.01541L1.79312 7.28623C1.61218 7.13731 1.48989 6.92907 1.44797 6.6985C1.40605 6.46794 1.44721 6.22998 1.56415 6.02689L2.70636 4.04806C2.82365 3.84475 3.00931 3.68969 3.23027 3.6105C3.45123 3.53131 3.69312 3.53314 3.91285 3.61566L4.98373 4.01724C5.29724 4.13437 5.6451 4.08065 5.93131 3.90804C5.99472 3.86929 6.05989 3.83142 6.12506 3.79532C6.41743 3.63416 6.6376 3.35939 6.6922 3.03003L6.88066 1.90191V1.90191Z" stroke="#313131" stroke-width="1.3" stroke-linecap="round" stroke-linejoin="round"/>
<path d="M11.6415 8.99994C11.6415 9.70063 11.3632 10.3726 10.8677 10.8681C10.3723 11.3635 9.70026 11.6419 8.99957 11.6419C8.29887 11.6419 7.62688 11.3635 7.13142 10.8681C6.63595 10.3726 6.3576 9.70063 6.3576 8.99994C6.3576 8.29924 6.63595 7.62725 7.13142 7.13179C7.62688 6.63632 8.29887 6.35798 8.99957 6.35798C9.70026 6.35798 10.3723 6.63632 10.8677 7.13179C11.3632 7.62725 11.6415 8.29924 11.6415 8.99994Z" stroke="#313131" stroke-width="1.3" stroke-linecap="round" stroke-linejoin="round"/>
</svg>
