<svg width="18" height="18" viewBox="0 0 18 18" fill="none" xmlns="http://www.w3.org/2000/svg">
<path d="M1.47083 9.94114C1.47083 9.42162 1.89246 8.99999 2.41197 8.99999H4.29427C4.81378 8.99999 5.23542 9.42162 5.23542 9.94114V15.588C5.23542 16.1075 4.81378 16.5292 4.29427 16.5292H2.41197C2.16236 16.5292 1.92298 16.43 1.74648 16.2535C1.56998 16.077 1.47083 15.8376 1.47083 15.588V9.94114ZM7.11771 6.17655C7.11771 5.65703 7.53934 5.2354 8.05886 5.2354H9.94115C10.4607 5.2354 10.8823 5.65703 10.8823 6.17655V15.588C10.8823 16.1075 10.4607 16.5292 9.94115 16.5292H8.05886C7.80925 16.5292 7.56987 16.43 7.39337 16.2535C7.21687 16.077 7.11771 15.8376 7.11771 15.588V6.17655ZM12.7646 2.41196C12.7646 1.89244 13.1862 1.47081 13.7057 1.47081H15.588C16.1076 1.47081 16.5292 1.89244 16.5292 2.41196V15.588C16.5292 16.1075 16.1076 16.5292 15.588 16.5292H13.7057C13.4561 16.5292 13.2168 16.43 13.0403 16.2535C12.8638 16.077 12.7646 15.8376 12.7646 15.588V2.41196Z" stroke="#313131" stroke-width="1.3" stroke-linecap="round" stroke-linejoin="round"/>
</svg>
