<svg width="18" height="18" viewBox="0 0 18 18" fill="none" xmlns="http://www.w3.org/2000/svg">
<path d="M6.10133 13.6581C6.10133 13.967 5.97864 14.2632 5.76026 14.4816C5.54187 14.6999 5.24568 14.8226 4.93684 14.8226C4.628 14.8226 4.33181 14.6999 4.11342 14.4816C3.89504 14.2632 3.77235 13.967 3.77235 13.6581M6.10133 13.6581C6.10133 13.3493 5.97864 13.0531 5.76026 12.8347C5.54187 12.6163 5.24568 12.4936 4.93684 12.4936C4.628 12.4936 4.33181 12.6163 4.11342 12.8347C3.89504 13.0531 3.77235 13.3493 3.77235 13.6581M6.10133 13.6581H10.7593M3.77235 13.6581H2.31674C2.08511 13.6581 1.86297 13.5661 1.69918 13.4023C1.53539 13.2385 1.44337 13.0164 1.44337 12.7848V10.1647M14.835 13.6581C14.835 13.967 14.7123 14.2632 14.4939 14.4816C14.2755 14.6999 13.9793 14.8226 13.6705 14.8226C13.3617 14.8226 13.0655 14.6999 12.8471 14.4816C12.6287 14.2632 12.506 13.967 12.506 13.6581M14.835 13.6581C14.835 13.3493 14.7123 13.0531 14.4939 12.8347C14.2755 12.6163 13.9793 12.4936 13.6705 12.4936C13.3617 12.4936 13.0655 12.6163 12.8471 12.8347C12.6287 13.0531 12.506 13.3493 12.506 13.6581M14.835 13.6581H15.7084C16.1905 13.6581 16.5848 13.2669 16.5546 12.7855C16.3986 10.2218 15.5352 7.75151 14.0602 5.64878C13.9197 5.45182 13.7363 5.28936 13.5238 5.1737C13.3113 5.05803 13.0753 4.99219 12.8336 4.98114H10.7593M12.506 13.6581H10.7593M10.7593 4.98114V4.23742C10.7593 3.79647 10.4317 3.42384 9.99305 3.37881C7.40552 3.11022 4.79714 3.11022 2.20961 3.37881C1.99826 3.40168 1.8029 3.50214 1.66136 3.66075C1.51981 3.81936 1.44214 4.02484 1.44337 4.23742V10.1647M10.7593 4.98114V10.1647M10.7593 13.6581V10.1647M10.7593 10.1647H1.44337" stroke="#313131" stroke-width="1.3" stroke-linecap="round" stroke-linejoin="round"/>
</svg>
